<?xml version="1.0" standalone="no"?>
<!DOCTYPE svg PUBLIC "-//W3C//DTD SVG 20010904//EN"
 "http://www.w3.org/TR/2001/REC-SVG-20010904/DTD/svg10.dtd">
<svg version="1.0" xmlns="http://www.w3.org/2000/svg"
 width="512.000000pt" height="512.000000pt" viewBox="0 0 512.000000 512.000000"
 preserveAspectRatio="xMidYMid meet">

<g transform="translate(0.000000,512.000000) scale(0.100000,-0.100000)"
fill="#000000" stroke="none">
<path d="M2389 4680 c-630 -107 -1030 -737 -853 -1346 105 -364 391 -642 762
-741 86 -23 116 -26 262 -26 147 0 176 3 265 26 368 98 654 378 759 741 174
601 -218 1231 -834 1342 -80 14 -286 17 -361 4z m301 -210 c326 -52 599 -293
690 -610 31 -107 38 -289 15 -401 -51 -252 -219 -474 -446 -588 -145 -72 -233
-93 -389 -93 -147 0 -239 20 -367 81 -454 218 -622 779 -361 1210 178 294 521
454 858 401z"/>
<path d="M2326 2339 c-560 -72 -1058 -377 -1367 -838 -162 -241 -272 -524
-310 -804 -18 -130 11 -201 102 -247 37 -20 71 -20 1801 -20 1693 0 1765 1
1803 19 84 39 121 109 110 210 -25 245 -134 555 -274 781 -265 425 -695 739
-1173 855 -208 51 -496 69 -692 44z m395 -210 c507 -51 959 -318 1247 -737 67
-98 161 -282 200 -393 31 -87 82 -299 82 -338 l0 -21 -1695 0 -1695 0 0 21 c0
45 42 222 76 320 259 750 1003 1228 1785 1148z"/>
</g>
</svg>
