<?xml version="1.0" standalone="no"?>
<!DOCTYPE svg PUBLIC "-//W3C//DTD SVG 20010904//EN"
 "http://www.w3.org/TR/2001/REC-SVG-20010904/DTD/svg10.dtd">
<svg version="1.0" xmlns="http://www.w3.org/2000/svg"
 width="512.000000pt" height="512.000000pt" viewBox="0 0 512.000000 512.000000"
 preserveAspectRatio="xMidYMid meet">

<g transform="translate(0.000000,512.000000) scale(0.100000,-0.100000)"
fill="#000000" stroke="none">
<path d="M622 4630 c-40 -11 -101 -34 -135 -52 -85 -44 -202 -164 -244 -248
-67 -133 -63 -42 -63 -1583 0 -1552 -4 -1454 66 -1588 71 -136 181 -229 334
-283 l85 -31 793 -3 c770 -3 794 -2 837 17 104 46 115 185 18 248 -25 17 -78
18 -823 23 l-795 5 -52 24 c-61 27 -126 93 -156 159 l-22 47 -3 998 -3 997
1911 0 1910 0 0 -91 c0 -104 15 -147 64 -182 73 -52 192 -13 216 71 8 25 10
191 8 527 l-3 490 -27 75 c-54 148 -165 273 -300 339 -129 64 -38 61 -1873 60
-1612 0 -1673 -1 -1743 -19z m3488 -299 c61 -32 107 -76 138 -136 27 -50 27
-51 30 -297 l3 -248 -1911 0 -1912 0 4 238 c3 219 5 241 25 285 28 61 54 93
102 129 83 61 -36 57 1796 55 l1680 -2 45 -24z"/>
<path d="M879 4107 c-48 -32 -68 -91 -48 -143 37 -96 168 -113 223 -28 21 31
24 100 7 132 -32 60 -123 79 -182 39z"/>
<path d="M1314 4097 c-91 -84 -23 -230 100 -214 58 8 106 61 106 118 0 77 -52
129 -129 129 -33 0 -49 -7 -77 -33z"/>
<path d="M1778 4115 c-81 -45 -75 -180 8 -220 71 -33 148 -2 173 71 17 49 10
84 -27 125 -23 26 -38 32 -78 35 -32 3 -58 -1 -76 -11z"/>
<path d="M4251 2754 c-41 -14 -97 -40 -125 -59 -28 -19 -353 -337 -722 -707
-569 -570 -674 -680 -688 -718 -9 -25 -34 -153 -55 -285 -48 -291 -46 -319 30
-416 37 -47 117 -89 182 -96 80 -8 516 70 577 103 32 17 266 246 722 702 719
722 712 713 752 851 22 74 20 200 -3 283 -46 169 -188 309 -356 353 -93 24
-225 19 -314 -11z m257 -270 c85 -35 144 -122 145 -214 0 -81 -27 -130 -133
-235 l-90 -90 -165 165 -166 165 103 101 c66 64 116 104 138 111 52 16 126 15
168 -3z m-739 -1200 l-456 -456 -194 -39 c-106 -22 -196 -39 -199 -39 -4 0 8
91 26 202 l33 202 458 458 458 458 165 -165 165 -165 -456 -456z"/>
</g>
</svg>
