<?xml version="1.0" standalone="no"?>
<!DOCTYPE svg PUBLIC "-//W3C//DTD SVG 20010904//EN"
 "http://www.w3.org/TR/2001/REC-SVG-20010904/DTD/svg10.dtd">
<svg version="1.0" xmlns="http://www.w3.org/2000/svg"
 width="2667.000000pt" height="2667.000000pt" viewBox="0 0 2667.000000 2667.000000"
 preserveAspectRatio="xMidYMid meet">

<g transform="translate(0.000000,2667.000000) scale(0.100000,-0.100000)"
fill="#000000" stroke="none">
<path d="M10950 23284 c-438 -26 -622 -44 -945 -90 -1254 -178 -2438 -638
-3310 -1284 -229 -169 -579 -489 -808 -737 -201 -219 -322 -372 -460 -584
-372 -571 -622 -1217 -737 -1903 -43 -258 -54 -430 -54 -821 1 -476 24 -720
99 -1055 309 -1374 1185 -2399 2669 -3126 752 -368 1212 -513 3266 -1034 1727
-438 2137 -564 2656 -815 454 -219 767 -456 984 -744 133 -176 240 -410 277
-601 7 -41 16 -172 20 -290 10 -407 -44 -668 -202 -968 -106 -200 -212 -338
-396 -517 -307 -298 -682 -513 -1172 -674 -472 -155 -874 -211 -1513 -211
-876 0 -1454 122 -2094 441 -311 156 -488 286 -753 553 -213 215 -312 355
-443 621 -166 339 -242 610 -299 1063 l-7 52 -1506 0 c-1446 -1 -2065 -9
-2082 -27 -9 -8 9 -265 36 -513 65 -616 210 -1210 421 -1730 127 -314 335
-701 530 -985 359 -524 839 -994 1393 -1362 1225 -816 2871 -1233 4870 -1233
1515 0 2838 255 3940 760 361 165 817 437 1088 647 218 170 612 543 786 743
314 361 611 867 795 1352 230 608 334 1194 334 1873 0 324 -13 523 -54 795
-301 1995 -1709 3391 -4252 4219 -399 130 -633 192 -1803 480 -1135 279 -1436
361 -1884 511 -678 226 -1039 429 -1391 780 -213 213 -330 379 -416 591 -95
234 -131 527 -102 839 40 437 204 774 536 1102 165 164 301 266 509 382 247
138 594 257 979 335 220 44 254 46 895 46 531 0 635 -2 760 -18 470 -58 943
-218 1315 -444 316 -193 596 -472 777 -775 152 -254 239 -502 298 -853 12 -71
25 -133 29 -136 3 -4 804 -9 1779 -13 l1772 -7 0 155 c0 232 -30 485 -96 816
-239 1201 -876 2214 -1890 3006 -139 109 -472 331 -634 423 -962 549 -2046
857 -3325 946 -545 37 -813 42 -1185 19z"/>
<path d="M15285 23036 c417 -213 667 -362 975 -581 550 -393 968 -809 1354
-1348 470 -658 725 -1274 925 -2237 61 -295 90 -600 91 -947 l0 -113 1245 0
1245 0 0 168 c0 307 -58 688 -170 1118 -180 696 -509 1329 -991 1909 -118 142
-491 513 -639 635 -501 414 -1031 726 -1680 988 -563 227 -1297 405 -2040 497
-107 13 -556 55 -585 55 -5 0 116 -65 270 -144z"/>
<path d="M10955 19630 c-570 -64 -821 -130 -1185 -316 -223 -114 -390 -247
-524 -419 -77 -99 -114 -161 -206 -345 l-73 -145 6 -280 c6 -311 10 -337 78
-482 116 -252 354 -494 673 -685 129 -77 384 -201 551 -268 434 -176 719 -255
2475 -690 1131 -279 1463 -373 1910 -540 965 -360 1718 -782 2385 -1336 164
-136 530 -501 661 -659 439 -529 735 -1066 913 -1657 121 -401 215 -860 242
-1183 15 -180 15 -788 0 -1020 -16 -234 -33 -369 -77 -590 -163 -829 -386
-1396 -789 -2005 -231 -349 -398 -555 -674 -831 -217 -216 -313 -299 -571
-493 -595 -446 -1021 -674 -1830 -976 -135 -50 -247 -94 -250 -97 -5 -5 178 1
555 18 1188 52 2391 352 3356 835 482 241 890 529 1336 943 1025 952 1570
2469 1442 4016 -75 913 -370 1711 -883 2390 -143 189 -249 309 -435 495 -442
441 -951 798 -1611 1128 -444 223 -822 377 -1350 550 -327 108 -628 189 -1470
398 -1479 366 -1788 448 -2222 594 -667 223 -1047 434 -1388 770 -310 305
-462 583 -522 955 -21 133 -15 495 10 636 78 431 317 813 705 1127 64 52 116
97 113 99 -5 6 -299 39 -461 53 -170 15 -787 21 -890 10z"/>
<path d="M8290 10436 c0 -41 43 -254 69 -341 61 -206 187 -482 284 -624 76
-112 447 -480 562 -558 293 -198 792 -395 1185 -468 200 -37 675 -67 1080 -69
289 -1 340 5 340 37 0 7 -79 92 -176 188 -302 300 -400 424 -529 671 -180 348
-270 654 -331 1136 l-5 42 -1240 0 c-1056 0 -1239 -2 -1239 -14z"/>
</g>
</svg>
