<?xml version="1.0" standalone="no"?>
<!DOCTYPE svg PUBLIC "-//W3C//DTD SVG 20010904//EN"
 "http://www.w3.org/TR/2001/REC-SVG-20010904/DTD/svg10.dtd">
<svg version="1.0" xmlns="http://www.w3.org/2000/svg"
 width="1000.000000pt" height="1000.000000pt" viewBox="0 0 1000.000000 1000.000000"
 preserveAspectRatio="xMidYMid meet">

<g transform="translate(0.000000,1000.000000) scale(0.100000,-0.100000)"
fill="#000000" stroke="none">
<path d="M4080 8729 c-606 -29 -1171 -215 -1580 -521 -108 -80 -283 -249 -367
-353 -198 -246 -328 -546 -379 -875 -24 -157 -22 -440 5 -595 106 -602 486
-1033 1166 -1323 220 -93 409 -150 1005 -301 573 -144 727 -187 890 -248 377
-140 584 -319 645 -558 19 -75 19 -229 0 -320 -59 -278 -295 -504 -647 -619
-178 -59 -331 -80 -573 -80 -228 0 -371 18 -552 70 -101 29 -265 104 -350 161
-78 51 -206 174 -259 250 -89 123 -160 315 -179 481 l-7 62 -674 0 c-533 0
-674 -3 -674 -12 0 -7 5 -67 10 -133 83 -975 633 -1632 1598 -1909 472 -136
1122 -177 1674 -106 523 67 951 223 1297 473 99 71 280 243 350 332 289 364
426 830 391 1326 -65 912 -718 1523 -1950 1827 -91 23 -329 82 -530 131 -631
156 -854 251 -1045 445 -133 135 -188 266 -188 451 0 190 56 333 181 467 144
153 320 240 597 295 71 14 140 18 330 18 265 0 370 -14 545 -73 347 -118 568
-363 623 -690 l13 -77 667 -3 667 -2 0 67 c0 89 -24 252 -55 380 -132 548
-520 1011 -1070 1277 -359 174 -734 263 -1205 286 -107 5 -199 9 -205 8 -5 0
-80 -4 -165 -9z"/>
<path d="M5761 8623 c297 -150 567 -360 743 -577 220 -271 336 -503 415 -829
50 -203 63 -294 65 -429 l1 -108 468 0 467 0 0 68 c-1 151 -52 407 -116 579
-198 530 -618 935 -1210 1166 -245 96 -578 168 -884 192 l-85 7 136 -69z"/>
<path d="M4150 7364 c-222 -19 -335 -46 -479 -117 -122 -60 -209 -144 -263
-255 l-43 -85 0 -116 c0 -110 2 -119 33 -185 67 -141 224 -259 482 -359 153
-60 285 -96 795 -221 486 -119 615 -154 800 -221 724 -262 1216 -674 1448
-1213 58 -133 120 -372 143 -545 20 -150 14 -465 -10 -602 -65 -360 -156 -595
-325 -843 -145 -211 -282 -351 -496 -504 -211 -151 -360 -228 -635 -330 l-105
-39 160 5 c530 16 1057 158 1451 391 180 107 397 292 513 440 289 364 426 830
391 1326 -65 912 -718 1523 -1950 1827 -91 23 -329 82 -530 131 -631 156 -854
251 -1045 445 -133 135 -188 266 -188 451 0 122 21 214 71 313 38 78 124 180
204 242 l47 38 -87 10 c-99 13 -315 22 -382 16z"/>
<path d="M3114 3873 c10 -72 44 -169 89 -258 32 -63 62 -101 137 -175 79 -79
112 -104 195 -147 119 -62 247 -106 370 -128 95 -18 463 -33 509 -21 26 6 25
9 -59 88 -48 45 -107 110 -131 144 -89 124 -160 316 -179 482 l-7 62 -465 0
-465 0 6 -47z"/>
</g>
</svg>
